<svg width="37" height="33" viewBox="0 0 37 33" fill="none" xmlns="http://www.w3.org/2000/svg">
<path fill-rule="evenodd" clip-rule="evenodd" d="M16.9443 1.37465C17.8789 1.94095 19.1114 1.93746 20.0426 1.36565C21.6858 0.356697 23.5545 -0.0245323 25.3651 0.00121307C31.1556 0.0835571 37 4.72767 37 11.4552C37 17.9265 32.7885 23.314 28.6231 26.9767C26.5155 28.83 24.3539 30.3012 22.5984 31.3144C21.7212 31.8207 20.9305 32.2213 20.2854 32.5002C19.9639 32.6392 19.6623 32.7551 19.3937 32.8389C19.1599 32.9117 18.8304 33 18.5 33C18.1696 33 17.8401 32.9117 17.6064 32.8389C17.3377 32.7551 17.0361 32.6392 16.7146 32.5002C16.0695 32.2213 15.2788 31.8207 14.4016 31.3144C12.6461 30.3012 10.4845 28.83 8.37688 26.9767C4.21148 23.314 -3.8147e-06 17.9265 -3.8147e-06 11.4552C-3.8147e-06 4.74357 5.83078 0.00107193 11.655 0.00107193C13.418 0.00107193 15.2899 0.372208 16.9443 1.37465Z" fill="#9400DA"/>
<path fill-rule="evenodd" clip-rule="evenodd" d="M16.9443 1.37465C17.8789 1.94095 19.1114 1.93746 20.0426 1.36565C21.6858 0.356697 23.5545 -0.0245323 25.3651 0.00121307C31.1556 0.0835571 37 4.72767 37 11.4552C37 17.9265 32.7885 23.314 28.6231 26.9767C26.5155 28.83 24.3539 30.3012 22.5984 31.3144C21.7212 31.8207 20.9305 32.2213 20.2854 32.5002C19.9639 32.6392 19.6623 32.7551 19.3937 32.8389C19.1599 32.9117 18.8304 33 18.5 33C18.1696 33 17.8401 32.9117 17.6064 32.8389C17.3377 32.7551 17.0361 32.6392 16.7146 32.5002C16.0695 32.2213 15.2788 31.8207 14.4016 31.3144C12.6461 30.3012 10.4845 28.83 8.37688 26.9767C4.21148 23.314 -3.8147e-06 17.9265 -3.8147e-06 11.4552C-3.8147e-06 4.74357 5.83078 0.00107193 11.655 0.00107193C13.418 0.00107193 15.2899 0.372208 16.9443 1.37465Z" fill="#9400DA"/>
</svg>
