<svg width="37" height="33" viewBox="0 0 37 33"  xmlns="http://www.w3.org/2000/svg">
<path fill-rule="evenodd" clip-rule="evenodd" d="M16.9443 1.37465C17.8789 1.94095 19.1114 1.93746 20.0426 1.36565C21.6858 0.356697 23.5545 -0.0245323 25.3651 0.00121307C31.1556 0.0835571 37 4.72767 37 11.4552C37 17.9265 32.7885 23.314 28.6231 26.9767C26.5155 28.83 24.3539 30.3012 22.5984 31.3144C21.7212 31.8207 20.9305 32.2213 20.2854 32.5002C19.9639 32.6392 19.6623 32.7551 19.3937 32.8389C19.1599 32.9117 18.8304 33 18.5 33C18.1696 33 17.8401 32.9117 17.6064 32.8389C17.3377 32.7551 17.0361 32.6392 16.7146 32.5002C16.0695 32.2213 15.2788 31.8207 14.4016 31.3144C12.6461 30.3012 10.4845 28.83 8.37688 26.9767C4.21148 23.314 -3.8147e-06 17.9265 -3.8147e-06 11.4552C-3.8147e-06 4.74357 5.83078 0.00107193 11.655 0.00107193C13.418 0.00107193 15.2899 0.372208 16.9443 1.37465ZM25.3249 2.72812C23.1091 2.69661 21.0442 3.43593 19.6544 5.48463C19.3971 5.86397 18.9639 6.09182 18.5 6.09182C18.0361 6.09183 17.6029 5.86397 17.3456 5.48463C15.9642 3.44833 13.8617 2.72827 11.655 2.72827C7.21166 2.72827 2.77492 6.39461 2.77492 11.4552C2.77492 16.7564 6.26408 21.4595 10.2271 24.9443C12.1838 26.6647 14.1933 28.0315 15.8069 28.9628C16.6142 29.4287 17.3075 29.7771 17.8321 30.004C18.0956 30.1179 18.3003 30.1941 18.4453 30.2393C18.4809 30.2504 18.5191 30.2504 18.5547 30.2393C18.6997 30.1941 18.9044 30.1179 19.1679 30.004C19.6925 29.7771 20.3858 29.4287 21.1932 28.9628C22.8067 28.0315 24.8162 26.6647 26.7729 24.9443C30.7359 21.4595 34.2251 16.7564 34.2251 11.4552C34.2251 6.41051 29.8019 2.79179 25.3249 2.72812Z" fill="yellow"/>
<path fill-rule="evenodd" clip-rule="evenodd" d="M16.9443 1.37465C17.8789 1.94095 19.1114 1.93746 20.0426 1.36565C21.6858 0.356697 23.5545 -0.0245323 25.3651 0.00121307C31.1556 0.0835571 37 4.72767 37 11.4552C37 17.9265 32.7885 23.314 28.6231 26.9767C26.5155 28.83 24.3539 30.3012 22.5984 31.3144C21.7212 31.8207 20.9305 32.2213 20.2854 32.5002C19.9639 32.6392 19.6623 32.7551 19.3937 32.8389C19.1599 32.9117 18.8304 33 18.5 33C18.1696 33 17.8401 32.9117 17.6064 32.8389C17.3377 32.7551 17.0361 32.6392 16.7146 32.5002C16.0695 32.2213 15.2788 31.8207 14.4016 31.3144C12.6461 30.3012 10.4845 28.83 8.37688 26.9767C4.21148 23.314 -3.8147e-06 17.9265 -3.8147e-06 11.4552C-3.8147e-06 4.74357 5.83078 0.00107193 11.655 0.00107193C13.418 0.00107193 15.2899 0.372208 16.9443 1.37465ZM25.3249 2.72812C23.1091 2.69661 21.0442 3.43593 19.6544 5.48463C19.3971 5.86397 18.9639 6.09182 18.5 6.09182C18.0361 6.09183 17.6029 5.86397 17.3456 5.48463C15.9642 3.44833 13.8617 2.72827 11.655 2.72827C7.21166 2.72827 2.77492 6.39461 2.77492 11.4552C2.77492 16.7564 6.26408 21.4595 10.2271 24.9443C12.1838 26.6647 14.1933 28.0315 15.8069 28.9628C16.6142 29.4287 17.3075 29.7771 17.8321 30.004C18.0956 30.1179 18.3003 30.1941 18.4453 30.2393C18.4809 30.2504 18.5191 30.2504 18.5547 30.2393C18.6997 30.1941 18.9044 30.1179 19.1679 30.004C19.6925 29.7771 20.3858 29.4287 21.1932 28.9628C22.8067 28.0315 24.8162 26.6647 26.7729 24.9443C30.7359 21.4595 34.2251 16.7564 34.2251 11.4552C34.2251 6.41051 29.8019 2.79179 25.3249 2.72812Z" fill="yellow"/>
<path fill-rule="evenodd" clip-rule="evenodd" d="M16.9443 1.37465C17.8789 1.94095 19.1114 1.93746 20.0426 1.36565C21.6858 0.356697 23.5545 -0.0245323 25.3651 0.00121307C31.1556 0.0835571 37 4.72767 37 11.4552C37 17.9265 32.7885 23.314 28.6231 26.9767C26.5155 28.83 24.3539 30.3012 22.5984 31.3144C21.7212 31.8207 20.9305 32.2213 20.2854 32.5002C19.9639 32.6392 19.6623 32.7551 19.3937 32.8389C19.1599 32.9117 18.8304 33 18.5 33C18.1696 33 17.8401 32.9117 17.6064 32.8389C17.3377 32.7551 17.0361 32.6392 16.7146 32.5002C16.0695 32.2213 15.2788 31.8207 14.4016 31.3144C12.6461 30.3012 10.4845 28.83 8.37688 26.9767C4.21148 23.314 -3.8147e-06 17.9265 -3.8147e-06 11.4552C-3.8147e-06 4.74357 5.83078 0.00107193 11.655 0.00107193C13.418 0.00107193 15.2899 0.372208 16.9443 1.37465ZM25.3249 2.72812C23.1091 2.69661 21.0442 3.43593 19.6544 5.48463C19.3971 5.86397 18.9639 6.09182 18.5 6.09182C18.0361 6.09183 17.6029 5.86397 17.3456 5.48463C15.9642 3.44833 13.8617 2.72827 11.655 2.72827C7.21166 2.72827 2.77492 6.39461 2.77492 11.4552C2.77492 16.7564 6.26408 21.4595 10.2271 24.9443C12.1838 26.6647 14.1933 28.0315 15.8069 28.9628C16.6142 29.4287 17.3075 29.7771 17.8321 30.004C18.0956 30.1179 18.3003 30.1941 18.4453 30.2393C18.4809 30.2504 18.5191 30.2504 18.5547 30.2393C18.6997 30.1941 18.9044 30.1179 19.1679 30.004C19.6925 29.7771 20.3858 29.4287 21.1932 28.9628C22.8067 28.0315 24.8162 26.6647 26.7729 24.9443C30.7359 21.4595 34.2251 16.7564 34.2251 11.4552C34.2251 6.41051 29.8019 2.79179 25.3249 2.72812Z" fill="yellow"/>
<path fill-rule="evenodd" clip-rule="evenodd" d="M16.9443 1.37465C17.8789 1.94095 19.1114 1.93746 20.0426 1.36565C21.6858 0.356697 23.5545 -0.0245323 25.3651 0.00121307C31.1556 0.0835571 37 4.72767 37 11.4552C37 17.9265 32.7885 23.314 28.6231 26.9767C26.5155 28.83 24.3539 30.3012 22.5984 31.3144C21.7212 31.8207 20.9305 32.2213 20.2854 32.5002C19.9639 32.6392 19.6623 32.7551 19.3937 32.8389C19.1599 32.9117 18.8304 33 18.5 33C18.1696 33 17.8401 32.9117 17.6064 32.8389C17.3377 32.7551 17.0361 32.6392 16.7146 32.5002C16.0695 32.2213 15.2788 31.8207 14.4016 31.3144C12.6461 30.3012 10.4845 28.83 8.37688 26.9767C4.21148 23.314 -3.8147e-06 17.9265 -3.8147e-06 11.4552C-3.8147e-06 4.74357 5.83078 0.00107193 11.655 0.00107193C13.418 0.00107193 15.2899 0.372208 16.9443 1.37465ZM25.3249 2.72812C23.1091 2.69661 21.0442 3.43593 19.6544 5.48463C19.3971 5.86397 18.9639 6.09182 18.5 6.09182C18.0361 6.09183 17.6029 5.86397 17.3456 5.48463C15.9642 3.44833 13.8617 2.72827 11.655 2.72827C7.21166 2.72827 2.77492 6.39461 2.77492 11.4552C2.77492 16.7564 6.26408 21.4595 10.2271 24.9443C12.1838 26.6647 14.1933 28.0315 15.8069 28.9628C16.6142 29.4287 17.3075 29.7771 17.8321 30.004C18.0956 30.1179 18.3003 30.1941 18.4453 30.2393C18.4809 30.2504 18.5191 30.2504 18.5547 30.2393C18.6997 30.1941 18.9044 30.1179 19.1679 30.004C19.6925 29.7771 20.3858 29.4287 21.1932 28.9628C22.8067 28.0315 24.8162 26.6647 26.7729 24.9443C30.7359 21.4595 34.2251 16.7564 34.2251 11.4552C34.2251 6.41051 29.8019 2.79179 25.3249 2.72812Z" fill="yellow"/>
</svg>
