<svg width="15" height="17" viewBox="0 0 15 17" fill="none" xmlns="http://www.w3.org/2000/svg">
<path d="M8.24859 4.14102C8.50763 3.8178 8.45562 3.34578 8.1324 3.08674C7.80919 2.82769 7.33717 2.87971 7.07812 3.20293L8.24859 4.14102ZM1.33376 11.5695L1.90179 12.0592C1.90765 12.0524 1.91338 12.0455 1.91899 12.0385L1.33376 11.5695ZM1.15024 12.0181L0.401702 11.9692L0.401048 11.9834L1.15024 12.0181ZM1 15.2623L0.250803 15.2276C0.249078 15.2648 0.250133 15.3021 0.253958 15.3392L1 15.2623ZM1.84459 15.9996L1.86911 16.7492C1.91913 16.7475 1.96885 16.7409 2.01755 16.7293L1.84459 15.9996ZM5.06412 15.2365L5.2371 15.9664L5.24874 15.9634L5.06412 15.2365ZM5.47729 14.9747L6.0559 15.452L6.0624 15.4439L5.47729 14.9747ZM12.5444 7.3607C12.8035 7.03756 12.7516 6.56553 12.4285 6.3064C12.1053 6.04726 11.6333 6.09915 11.3742 6.4223L12.5444 7.3607ZM7.08201 3.20272C6.82285 3.52584 6.87472 3.99788 7.19784 4.25703C7.52097 4.51619 7.993 4.46433 8.25216 4.1412L7.08201 3.20272ZM9.37129 1.54707L9.95636 2.01631C9.96622 2.00402 9.97569 1.99142 9.98475 1.97853L9.37129 1.54707ZM11.1195 1.20365L11.5993 0.62721C11.5754 0.607329 11.5503 0.588952 11.5242 0.572185L11.1195 1.20365ZM13.5202 3.20191L14.051 2.67207C14.0347 2.65576 14.0177 2.64021 14 2.62547L13.5202 3.20191ZM13.8818 4.08285L14.6318 4.08697V4.08697L13.8818 4.08285ZM13.5105 4.95977L12.9856 4.42413C12.9643 4.44496 12.9443 4.46705 12.9257 4.49026L13.5105 4.95977ZM11.3749 6.42198C11.1156 6.74499 11.1673 7.21704 11.4903 7.47635C11.8133 7.73565 12.2853 7.68401 12.5447 7.361L11.3749 6.42198ZM8.4088 3.56082C8.34742 3.15118 7.96558 2.86887 7.55594 2.93025C7.1463 2.99164 6.86398 3.37348 6.92537 3.78312L8.4088 3.56082ZM12.0608 7.63467C12.4712 7.5789 12.7587 7.20096 12.703 6.79052C12.6472 6.38008 12.2693 6.09256 11.8588 6.14833L12.0608 7.63467ZM7.07812 3.20293L0.748526 11.1004L1.91899 12.0385L8.24859 4.14102L7.07812 3.20293ZM0.765727 11.0797C0.550982 11.3288 0.423237 11.6411 0.401835 11.9693L1.89865 12.0669C1.89884 12.064 1.89994 12.0614 1.90179 12.0592L0.765727 11.0797ZM0.401048 11.9834L0.250803 15.2276L1.7492 15.297L1.89944 12.0528L0.401048 11.9834ZM0.253958 15.3392C0.338653 16.1604 1.04405 16.7761 1.86911 16.7492L1.82007 15.25C1.78225 15.2512 1.74992 15.223 1.74604 15.1853L0.253958 15.3392ZM2.01755 16.7293L5.23708 15.9663L4.89116 14.5067L1.67163 15.2698L2.01755 16.7293ZM5.24874 15.9634C5.5653 15.883 5.84801 15.7039 6.05584 15.4519L4.89874 14.4974C4.89379 14.5034 4.88705 14.5077 4.8795 14.5096L5.24874 15.9634ZM6.0624 15.4439L12.5444 7.3607L11.3742 6.4223L4.89219 14.5055L6.0624 15.4439ZM8.25216 4.1412L9.95636 2.01631L8.78621 1.07783L7.08201 3.20272L8.25216 4.1412ZM9.98475 1.97853C10.1504 1.74294 10.4723 1.67971 10.7148 1.83512L11.5242 0.572185C10.6053 -0.016646 9.38566 0.222939 8.75783 1.1156L9.98475 1.97853ZM10.6397 1.78009L13.0404 3.77835L14 2.62547L11.5993 0.62721L10.6397 1.78009ZM12.9894 3.73175C13.0812 3.82378 13.1325 3.9487 13.1318 4.07873L14.6318 4.08697C14.6347 3.55675 14.4256 3.04734 14.051 2.67207L12.9894 3.73175ZM13.1318 4.07873C13.1311 4.20876 13.0784 4.33311 12.9856 4.42413L14.0355 5.49541C14.4142 5.12427 14.6289 4.6172 14.6318 4.08697L13.1318 4.07873ZM12.9257 4.49026L11.3749 6.42198L12.5447 7.361L14.0954 5.42928L12.9257 4.49026ZM6.92537 3.78312C7.29583 6.25532 9.58372 7.97124 12.0608 7.63467L11.8588 6.14833C10.1947 6.37444 8.65769 5.22167 8.4088 3.56082L6.92537 3.78312Z" fill="#9400DA"/>
</svg>
