<svg width="18" height="18"  viewBox="0 0 18 18" fill="none" xmlns="http://www.w3.org/2000/svg">
<path d="M7.53255 0.200012C3.49115 0.200012 0.199219 3.49194 0.199219 7.53335C0.199219 11.5747 3.49115 14.8667 7.53255 14.8667C9.28999 14.8667 10.904 14.2426 12.1689 13.2067L16.5474 17.5852C16.615 17.6556 16.6959 17.7117 16.7855 17.7505C16.875 17.7892 16.9714 17.8096 17.069 17.8106C17.1665 17.8116 17.2633 17.7931 17.3537 17.7562C17.444 17.7194 17.526 17.6648 17.595 17.5958C17.664 17.5268 17.7186 17.4448 17.7554 17.3544C17.7923 17.2641 17.8108 17.1673 17.8098 17.0698C17.8088 16.9722 17.7884 16.8758 17.7497 16.7863C17.7109 16.6967 17.6548 16.6158 17.5844 16.5482L13.2059 12.1697C14.2418 10.9048 14.8659 9.29079 14.8659 7.53335C14.8659 3.49194 11.574 0.200012 7.53255 0.200012ZM7.53255 1.66668C10.7813 1.66668 13.3992 4.28459 13.3992 7.53335C13.3992 10.7821 10.7813 13.4 7.53255 13.4C4.2838 13.4 1.66589 10.7821 1.66589 7.53335C1.66589 4.28459 4.2838 1.66668 7.53255 1.66668Z" fill="#838080"/>
</svg>
